<svg width="320" height="352" xmlns="http://www.w3.org/2000/svg" xmlns:xlink="http://www.w3.org/1999/xlink" xml:space="preserve" overflow="hidden"><defs><clipPath id="clip0"><rect x="374" y="95" width="320" height="352"/></clipPath></defs><g clip-path="url(#clip0)" transform="translate(-374 -95)"><path d="M264.956 134.471C265.493 132.861 266.029 131.29 266.489 129.795 259.628 119.292 252.306 111.932 242.838 104.648 229.306 94.2219 213.897 85.0604 199.637 75.4772 176.982 60.2591 165.367 42.0127 159.618 29.5162 158.851 27.8679 156.551 27.8679 155.746 29.5162 144.169 53.4742 148.654 74.4039 150.724 81.3421 193.925 95.7552 234.213 94.3369 264.994 134.471L264.994 134.471ZM251.539 285.541C234.366 285.694 223.02 309.959 222.982 310.035 217.347 321.688 203.547 342.656 196.839 352.508 194.002 356.725 189.939 359.216 184.879 359.868 180.087 360.481 175.487 360.788 171.041 360.788 169.891 360.788 168.932 360.174 168.434 359.139 167.936 358.104 168.127 356.955 168.856 356.073L195.689 324.563C197.49 322.455 197.222 319.312 195.152 317.548 193.082 315.785 189.9 316.015 188.137 318.085L154.404 357.683C153.561 358.679 152.296 359.139 150.993 358.871 141.218 356.916 132.401 353.543 124.505 349.288 123.623 348.79 123.086 347.946 123.01 346.95 122.933 345.915 123.393 345.033 124.236 344.458L169.929 312.527C172.191 310.955 172.727 307.85 171.156 305.589 169.584 303.327 166.479 302.79 164.217 304.362L113.81 339.628C112.507 340.548 110.82 340.51 109.555 339.513 102.847 334.223 96.9818 328.397 91.9219 322.493 91.1553 321.573 90.8869 320.423 91.1936 319.273 91.5003 318.123 92.3052 317.242 93.4169 316.82 108.022 311.492 134.126 301.87 153.983 293.974 156.551 292.977 157.816 290.064 156.781 287.496 155.784 284.927 152.871 283.662 150.303 284.697 127.341 293.782 97.7868 304.63 85.137 309.23 83.5654 309.805 81.8404 309.23 80.9204 307.85 78.8505 304.707 77.0105 301.717 75.4388 298.88 72.0272 292.862 75.7072 285.426 82.5304 284.467 171.079 272.124 212.747 253.188 212.9 253.149 213.782 252.766 214.51 252.114 215.008 251.348L226.317 233.676C237.893 231.376 249.968 226.163 259.436 215.507 261.276 213.437 261.084 210.293 259.014 208.453 256.944 206.613 253.801 206.805 251.961 208.875 236.628 226.087 212.747 226.355 199.1 224.783 197.72 224.63 197.375 222.828 198.564 222.138 200.94 220.758 203.24 219.072 205.502 217.04 207.533 215.2 207.725 212.057 205.885 210.025 204.045 207.993 200.902 207.802 198.87 209.642 195.65 212.517 192.315 214.433 188.367 215.928 175.104 220.682 158.161 214.242 148.463 209.527 147.236 208.913 147.696 207.38 148.156 207.15 148.693 206.882 156.819 206.23 167.016 200.174 169.392 198.755 170.159 195.727 168.741 193.35 167.322 190.974 164.294 190.207 161.918 191.625 156.513 194.845 151.184 196.647 145.089 197.529 125.08 200.25 106.718 188.75 97.2885 181.352 96.4835 180.739 96.5985 179.474 97.4802 178.976L98.9368 178.171C106.91 178.209 118.103 177.366 125.846 175.909 128.568 175.411 130.331 172.804 129.833 170.082 129.335 167.361 126.728 165.597 124.006 166.096 120.135 166.824 102.425 168.472 98.0552 168.166 74.2122 166.441 60.4124 149.268 54.0108 138.496 53.4358 137.576 54.0875 136.388 55.1992 136.35L59.1091 136.235C69.4589 141.486 81.0354 143.173 92.5736 142.943 95.3335 142.904 97.5185 140.605 97.4418 137.883 97.4035 135.123 95.1035 132.938 92.3819 133.015 86.057 133.13 80.4221 132.593 75.4005 131.481 64.5523 129.105 56.6175 124.045 50.9442 117.49 40.7477 105.76 37.6811 89.3536 37.6044 75.3238 37.6044 74.1739 38.8311 73.4839 39.7894 74.0972 54.8158 83.642 70.3023 94.6435 86.517 101.735 89.047 102.847 91.9603 101.697 93.0719 99.1668 94.1835 96.6368 93.0336 93.7236 90.5036 92.6119 81.0354 88.472 71.9889 83.1821 63.4407 77.3555 58.3041 73.6755 55.0075 71.1456 51.6725 66.7373 41.936 53.8192 42.2427 36.8378 51.2509 23.613 52.0559 22.4247 53.7808 22.348 54.7008 23.498 64.629 35.9178 87.7436 61.7541 120.94 79.6938 158.621 100.048 199.215 99.4735 229.766 116.8 251.424 129.105 263.653 147.773 272.891 168.472 274.002 170.964 276.954 172.114 279.484 171.002 281.976 169.891 283.126 166.939 282.014 164.409 279.254 158.161 275.957 151.491 271.818 144.783 279.369 124.428 281.477 111.817 282.436 105.99 283.394 100.278 285.617 93.4169 291.789 87.5903 295.507 84.102 300.529 81.4187 307.199 80.8438 322.57 79.5404 328.435 99.1668 328.473 99.2435 329.048 101.122 330.697 102.54 332.767 102.732 332.767 102.732 338.516 103.23 344.496 105.53 345.761 106.028 345.723 107.83 344.42 108.213 337.213 110.513 329.508 114.193 327.208 119.828 327.208 119.905 317.625 140.988 333.495 181.237 356.84 240.576 308.272 283.816 251.424 285.694Z" fill="#FFFFFF" fill-rule="evenodd" transform="matrix(1.00242 0 0 1 341.15 80.3377)"/><text fill="#FFFFFF" font-family="Arial,Arial_MSFontService,sans-serif" font-weight="700" font-size="5" transform="matrix(3.84255 0 0 3.83327 341.15 521)">Created by Hanbai</text><text fill="#FFFFFF" font-family="Arial,Arial_MSFontService,sans-serif" font-weight="700" font-size="5" transform="matrix(3.84255 0 0 3.83327 341.15 540)">from the Noun Project</text></g></svg>